<mxfile host="app.diagrams.net" modified="2022-05-24T06:36:28.155Z" agent="5.0 (Windows NT 10.0; Win64; x64) AppleWebKit/537.36 (KHTML, like Gecko) Chrome/101.0.4951.67 Safari/537.36" etag="FawLtUgldfIeuqSQMGUf" version="18.1.1" type="github">
  <diagram id="CSwuzUKMIccfADh2_HcM" name="第 1 页">
    <mxGraphModel dx="1038" dy="539" grid="0" gridSize="10" guides="1" tooltips="1" connect="1" arrows="1" fold="1" page="1" pageScale="1" pageWidth="827" pageHeight="1169" math="0" shadow="0">
      <root>
        <mxCell id="0" />
        <mxCell id="1" parent="0" />
        <mxCell id="Br_0iNkM0B_P52d63Boj-1" value="" style="rounded=1;whiteSpace=wrap;html=1;dashed=1;fillColor=#ffe6cc;strokeColor=#d79b00;" vertex="1" parent="1">
          <mxGeometry y="10" width="400" height="460" as="geometry" />
        </mxCell>
        <mxCell id="Br_0iNkM0B_P52d63Boj-2" value="认证、授权" style="rounded=0;whiteSpace=wrap;html=1;dashed=1;fontFamily=Helvetica;fontSize=11;fontColor=#ffffff;fillColor=#e51400;strokeColor=#B20000;" vertex="1" parent="1">
          <mxGeometry x="184" y="260" width="110" height="20" as="geometry" />
        </mxCell>
        <mxCell id="Br_0iNkM0B_P52d63Boj-3" value="短链接系统后台API" style="rounded=0;whiteSpace=wrap;html=1;dashed=1;fontFamily=Helvetica;fontSize=11;fillColor=#dae8fc;strokeColor=#6c8ebf;" vertex="1" parent="1">
          <mxGeometry x="184" y="280" width="110" height="40" as="geometry" />
        </mxCell>
        <mxCell id="Br_0iNkM0B_P52d63Boj-4" value="redis" style="rounded=0;whiteSpace=wrap;html=1;dashed=1;fontFamily=Helvetica;fontSize=11;fontColor=#000000;fillColor=#e3c800;strokeColor=#B09500;" vertex="1" parent="1">
          <mxGeometry x="124" y="391.84" width="90" height="60" as="geometry" />
        </mxCell>
        <mxCell id="Br_0iNkM0B_P52d63Boj-5" value="" style="sketch=0;aspect=fixed;html=1;points=[];align=center;image;fontSize=12;image=img/lib/mscae/Cache_Redis_Product.svg;dashed=1;fontFamily=Helvetica;fontColor=default;" vertex="1" parent="1">
          <mxGeometry x="159" y="396.2" width="20" height="16.8" as="geometry" />
        </mxCell>
        <mxCell id="Br_0iNkM0B_P52d63Boj-6" value="mysql" style="rounded=0;whiteSpace=wrap;html=1;dashed=1;fontFamily=Helvetica;fontSize=11;fontColor=#000000;fillColor=#e3c800;strokeColor=#B09500;" vertex="1" parent="1">
          <mxGeometry x="224" y="391.84" width="100" height="58.16" as="geometry" />
        </mxCell>
        <mxCell id="Br_0iNkM0B_P52d63Boj-7" value="" style="sketch=0;aspect=fixed;html=1;points=[];align=center;image;fontSize=12;image=img/lib/mscae/Azure_Database_for_MySQL_servers.svg;dashed=1;fontFamily=Helvetica;fontColor=default;" vertex="1" parent="1">
          <mxGeometry x="264" y="391.44" width="19" height="25" as="geometry" />
        </mxCell>
        <mxCell id="Br_0iNkM0B_P52d63Boj-8" value="" style="shape=flexArrow;endArrow=classic;startArrow=classic;html=1;rounded=0;labelBackgroundColor=default;fontFamily=Helvetica;fontSize=11;fontColor=default;strokeColor=default;exitX=0.871;exitY=0.008;exitDx=0;exitDy=0;exitPerimeter=0;" edge="1" parent="1" source="Br_0iNkM0B_P52d63Boj-4">
          <mxGeometry width="100" height="100" relative="1" as="geometry">
            <mxPoint x="104" y="420" as="sourcePoint" />
            <mxPoint x="204" y="320" as="targetPoint" />
          </mxGeometry>
        </mxCell>
        <mxCell id="Br_0iNkM0B_P52d63Boj-9" value="" style="shape=flexArrow;endArrow=classic;startArrow=classic;html=1;rounded=0;labelBackgroundColor=default;fontFamily=Helvetica;fontSize=11;fontColor=default;strokeColor=default;exitX=1.048;exitY=0.173;exitDx=0;exitDy=0;exitPerimeter=0;" edge="1" parent="1" source="Br_0iNkM0B_P52d63Boj-7">
          <mxGeometry width="100" height="100" relative="1" as="geometry">
            <mxPoint x="183" y="420" as="sourcePoint" />
            <mxPoint x="283" y="320" as="targetPoint" />
          </mxGeometry>
        </mxCell>
        <mxCell id="Br_0iNkM0B_P52d63Boj-10" value="&lt;b&gt;read/write&lt;/b&gt;" style="text;html=1;align=center;verticalAlign=middle;resizable=0;points=[];autosize=1;strokeColor=none;fillColor=none;fontSize=11;fontFamily=Helvetica;fontColor=default;" vertex="1" parent="1">
          <mxGeometry x="209" y="340" width="70" height="20" as="geometry" />
        </mxCell>
        <mxCell id="Br_0iNkM0B_P52d63Boj-11" value="&lt;font color=&quot;#000000&quot;&gt;nginx&lt;/font&gt;" style="rounded=0;whiteSpace=wrap;html=1;dashed=1;fontFamily=Helvetica;fontSize=11;fontColor=#ffffff;fillColor=#60a917;strokeColor=#2D7600;" vertex="1" parent="1">
          <mxGeometry x="184" y="140" width="120" height="60" as="geometry" />
        </mxCell>
        <mxCell id="Br_0iNkM0B_P52d63Boj-12" value="&lt;font color=&quot;#000000&quot;&gt;前端资源(普通用户)&lt;/font&gt;" style="rounded=0;whiteSpace=wrap;html=1;dashed=1;fontFamily=Helvetica;fontSize=11;fontColor=#ffffff;fillColor=#60a917;strokeColor=#2D7600;" vertex="1" parent="1">
          <mxGeometry x="10" y="135" width="120" height="30" as="geometry" />
        </mxCell>
        <mxCell id="Br_0iNkM0B_P52d63Boj-16" value="" style="shape=flexArrow;endArrow=classic;html=1;rounded=0;labelBackgroundColor=default;fontFamily=Helvetica;fontSize=11;fontColor=default;strokeColor=default;exitX=0.219;exitY=-0.091;exitDx=0;exitDy=0;exitPerimeter=0;" edge="1" parent="1" source="Br_0iNkM0B_P52d63Boj-2">
          <mxGeometry width="50" height="50" relative="1" as="geometry">
            <mxPoint x="159" y="250" as="sourcePoint" />
            <mxPoint x="209" y="200" as="targetPoint" />
          </mxGeometry>
        </mxCell>
        <mxCell id="Br_0iNkM0B_P52d63Boj-17" value="" style="shape=flexArrow;endArrow=classic;html=1;rounded=0;labelBackgroundColor=default;fontFamily=Helvetica;fontSize=11;fontColor=default;strokeColor=default;exitX=0.788;exitY=1.063;exitDx=0;exitDy=0;exitPerimeter=0;" edge="1" parent="1" source="Br_0iNkM0B_P52d63Boj-11">
          <mxGeometry width="50" height="50" relative="1" as="geometry">
            <mxPoint x="229" y="310" as="sourcePoint" />
            <mxPoint x="279" y="260" as="targetPoint" />
          </mxGeometry>
        </mxCell>
        <mxCell id="Br_0iNkM0B_P52d63Boj-18" value="响应" style="text;html=1;align=center;verticalAlign=middle;resizable=0;points=[];autosize=1;strokeColor=none;fillColor=none;fontSize=11;fontFamily=Helvetica;fontColor=default;" vertex="1" parent="1">
          <mxGeometry x="284" y="210" width="40" height="20" as="geometry" />
        </mxCell>
        <mxCell id="Br_0iNkM0B_P52d63Boj-19" value="请求" style="text;html=1;align=center;verticalAlign=middle;resizable=0;points=[];autosize=1;strokeColor=none;fillColor=none;fontSize=11;fontFamily=Helvetica;fontColor=default;" vertex="1" parent="1">
          <mxGeometry x="159" y="220" width="40" height="20" as="geometry" />
        </mxCell>
        <mxCell id="Br_0iNkM0B_P52d63Boj-20" value="" style="rounded=0;whiteSpace=wrap;html=1;dashed=1;fontFamily=Helvetica;fontSize=11;fontColor=default;" vertex="1" parent="1">
          <mxGeometry x="184" y="30" width="120" height="60" as="geometry" />
        </mxCell>
        <mxCell id="Br_0iNkM0B_P52d63Boj-21" value="" style="sketch=0;aspect=fixed;html=1;points=[];align=center;image;fontSize=12;image=img/lib/mscae/VM_Linux.svg;dashed=1;fontFamily=Helvetica;fontColor=default;" vertex="1" parent="1">
          <mxGeometry x="184" y="46.2" width="30" height="27.6" as="geometry" />
        </mxCell>
        <mxCell id="Br_0iNkM0B_P52d63Boj-22" value="" style="sketch=0;aspect=fixed;html=1;points=[];align=center;image;fontSize=12;image=img/lib/mscae/VirtualMachineWindows.svg;dashed=1;fontFamily=Helvetica;fontColor=default;" vertex="1" parent="1">
          <mxGeometry x="224" y="46.2" width="30" height="27.6" as="geometry" />
        </mxCell>
        <mxCell id="Br_0iNkM0B_P52d63Boj-23" value="" style="sketch=0;aspect=fixed;html=1;points=[];align=center;image;fontSize=12;image=img/lib/mscae/VirtualMachineWindows.svg;dashed=1;fontFamily=Helvetica;fontColor=default;" vertex="1" parent="1">
          <mxGeometry x="264" y="46.2" width="30" height="27.6" as="geometry" />
        </mxCell>
        <mxCell id="Br_0iNkM0B_P52d63Boj-24" value="用户" style="text;html=1;align=center;verticalAlign=middle;resizable=0;points=[];autosize=1;strokeColor=none;fillColor=none;fontSize=11;fontFamily=Helvetica;fontColor=default;" vertex="1" parent="1">
          <mxGeometry x="206" y="10" width="40" height="20" as="geometry" />
        </mxCell>
        <mxCell id="Br_0iNkM0B_P52d63Boj-25" value="请求/响应" style="text;html=1;align=center;verticalAlign=middle;resizable=0;points=[];autosize=1;strokeColor=none;fillColor=none;fontSize=11;fontFamily=Helvetica;fontColor=default;" vertex="1" parent="1">
          <mxGeometry x="264" y="100" width="70" height="20" as="geometry" />
        </mxCell>
        <mxCell id="Br_0iNkM0B_P52d63Boj-30" value="&lt;font color=&quot;#000000&quot;&gt;前端资源(管理员)&lt;/font&gt;" style="rounded=0;whiteSpace=wrap;html=1;dashed=1;fontFamily=Helvetica;fontSize=11;fontColor=#ffffff;fillColor=#60a917;strokeColor=#2D7600;" vertex="1" parent="1">
          <mxGeometry x="10" y="173" width="120" height="30" as="geometry" />
        </mxCell>
        <mxCell id="Br_0iNkM0B_P52d63Boj-32" value="&lt;h1 style=&quot;outline: none; margin: 0px; padding: 0px; font-size: 40px; box-sizing: border-box; -webkit-tap-highlight-color: transparent; line-height: 52px; font-weight: 500; overflow: hidden; text-overflow: ellipsis; font-family: &amp;quot;pingfang SC&amp;quot;, &amp;quot;helvetica neue&amp;quot;, arial, &amp;quot;hiragino sans gb&amp;quot;, &amp;quot;microsoft yahei ui&amp;quot;, &amp;quot;microsoft yahei&amp;quot;, simsun, sans-serif; text-align: start; background-color: rgb(241, 243, 244);&quot; id=&quot;hero_tit&quot; class=&quot;tpm-prod-hero__tit&quot;&gt;&lt;br&gt;&lt;/h1&gt;" style="sketch=0;aspect=fixed;pointerEvents=1;shadow=0;dashed=0;html=1;strokeColor=none;labelPosition=center;verticalLabelPosition=bottom;verticalAlign=top;align=center;fillColor=#00188D;shape=mxgraph.mscae.enterprise.internet_hollow;fontFamily=Helvetica;fontSize=11;fontColor=default;" vertex="1" parent="1">
          <mxGeometry x="6.000000000000009" y="271" width="69.26" height="42.94" as="geometry" />
        </mxCell>
        <mxCell id="Br_0iNkM0B_P52d63Boj-33" value="对象存储 COS" style="text;html=1;align=center;verticalAlign=middle;resizable=0;points=[];autosize=1;strokeColor=none;fillColor=none;" vertex="1" parent="1">
          <mxGeometry x="6" y="325.8" width="90" height="20" as="geometry" />
        </mxCell>
        <mxCell id="Br_0iNkM0B_P52d63Boj-35" value="" style="shape=flexArrow;endArrow=classic;startArrow=classic;html=1;rounded=0;" edge="1" parent="1">
          <mxGeometry width="100" height="100" relative="1" as="geometry">
            <mxPoint x="75.25999999999999" y="300" as="sourcePoint" />
            <mxPoint x="180" y="300" as="targetPoint" />
          </mxGeometry>
        </mxCell>
        <mxCell id="Br_0iNkM0B_P52d63Boj-36" value="" style="shape=flexArrow;endArrow=classic;startArrow=classic;html=1;rounded=0;" edge="1" parent="1" source="Br_0iNkM0B_P52d63Boj-11">
          <mxGeometry width="100" height="100" relative="1" as="geometry">
            <mxPoint x="144" y="190" as="sourcePoint" />
            <mxPoint x="244" y="90" as="targetPoint" />
          </mxGeometry>
        </mxCell>
        <mxCell id="Br_0iNkM0B_P52d63Boj-43" value="" style="shape=flexArrow;endArrow=classic;startArrow=classic;html=1;rounded=0;startSize=3;endSize=3;entryX=-0.003;entryY=0.867;entryDx=0;entryDy=0;entryPerimeter=0;width=5;" edge="1" parent="1">
          <mxGeometry width="100" height="100" relative="1" as="geometry">
            <mxPoint x="130" y="188" as="sourcePoint" />
            <mxPoint x="183.6400000000001" y="190.01999999999998" as="targetPoint" />
          </mxGeometry>
        </mxCell>
        <mxCell id="Br_0iNkM0B_P52d63Boj-44" value="" style="shape=flexArrow;endArrow=classic;startArrow=classic;html=1;rounded=0;startSize=3;endSize=3;entryX=-0.003;entryY=0.867;entryDx=0;entryDy=0;entryPerimeter=0;width=5;" edge="1" parent="1">
          <mxGeometry width="100" height="100" relative="1" as="geometry">
            <mxPoint x="130" y="151" as="sourcePoint" />
            <mxPoint x="183.6400000000001" y="153.01999999999998" as="targetPoint" />
          </mxGeometry>
        </mxCell>
        <mxCell id="Br_0iNkM0B_P52d63Boj-45" value="" style="rounded=1;whiteSpace=wrap;html=1;dashed=1;fillColor=#ffe6cc;strokeColor=#d79b00;" vertex="1" parent="1">
          <mxGeometry x="408" y="10" width="413" height="470" as="geometry" />
        </mxCell>
        <mxCell id="Br_0iNkM0B_P52d63Boj-46" value="推广系统后台API" style="rounded=0;whiteSpace=wrap;html=1;fillColor=#dae8fc;strokeColor=#6c8ebf;" vertex="1" parent="1">
          <mxGeometry x="478" y="300" width="110" height="30" as="geometry" />
        </mxCell>
        <mxCell id="Br_0iNkM0B_P52d63Boj-47" value="认证、授权" style="rounded=0;whiteSpace=wrap;html=1;fillColor=#e51400;strokeColor=#B20000;fontColor=#ffffff;" vertex="1" parent="1">
          <mxGeometry x="478" y="280" width="110" height="20" as="geometry" />
        </mxCell>
        <mxCell id="Br_0iNkM0B_P52d63Boj-48" value="" style="shape=flexArrow;endArrow=classic;html=1;rounded=0;" edge="1" parent="1">
          <mxGeometry width="50" height="50" relative="1" as="geometry">
            <mxPoint x="498" y="280" as="sourcePoint" />
            <mxPoint x="498" y="230" as="targetPoint" />
          </mxGeometry>
        </mxCell>
        <mxCell id="Br_0iNkM0B_P52d63Boj-49" value="响应" style="edgeLabel;html=1;align=center;verticalAlign=middle;resizable=0;points=[];" vertex="1" connectable="0" parent="Br_0iNkM0B_P52d63Boj-48">
          <mxGeometry x="-0.3646" y="1" relative="1" as="geometry">
            <mxPoint x="-19" as="offset" />
          </mxGeometry>
        </mxCell>
        <mxCell id="Br_0iNkM0B_P52d63Boj-50" value="" style="shape=flexArrow;endArrow=classic;html=1;rounded=0;entryX=0.818;entryY=0;entryDx=0;entryDy=0;entryPerimeter=0;" edge="1" parent="1" target="Br_0iNkM0B_P52d63Boj-47">
          <mxGeometry width="50" height="50" relative="1" as="geometry">
            <mxPoint x="568" y="230" as="sourcePoint" />
            <mxPoint x="618" y="170" as="targetPoint" />
            <Array as="points">
              <mxPoint x="568" y="240" />
            </Array>
          </mxGeometry>
        </mxCell>
        <mxCell id="Br_0iNkM0B_P52d63Boj-51" value="请求" style="edgeLabel;html=1;align=center;verticalAlign=middle;resizable=0;points=[];fontSize=11;fontFamily=Helvetica;fontColor=default;" vertex="1" connectable="0" parent="Br_0iNkM0B_P52d63Boj-50">
          <mxGeometry x="0.4788" relative="1" as="geometry">
            <mxPoint x="20" y="-17" as="offset" />
          </mxGeometry>
        </mxCell>
        <mxCell id="Br_0iNkM0B_P52d63Boj-52" value="&lt;font color=&quot;#000000&quot;&gt;nginx&amp;nbsp;&lt;/font&gt;" style="rounded=0;whiteSpace=wrap;html=1;fontFamily=Helvetica;fontSize=11;fontColor=#ffffff;dashed=1;fillColor=#60a917;strokeColor=#2D7600;" vertex="1" parent="1">
          <mxGeometry x="478" y="170" width="120" height="60" as="geometry" />
        </mxCell>
        <mxCell id="Br_0iNkM0B_P52d63Boj-53" value="&lt;font color=&quot;#000000&quot;&gt;前端资源(普通用户)&lt;/font&gt;" style="rounded=0;whiteSpace=wrap;html=1;dashed=1;fontFamily=Helvetica;fontSize=11;fontColor=#ffffff;fillColor=#60a917;strokeColor=#2D7600;" vertex="1" parent="1">
          <mxGeometry x="683" y="165" width="110" height="30" as="geometry" />
        </mxCell>
        <mxCell id="Br_0iNkM0B_P52d63Boj-56" value="" style="rounded=0;whiteSpace=wrap;html=1;dashed=1;fontFamily=Helvetica;fontSize=11;fontColor=default;" vertex="1" parent="1">
          <mxGeometry x="478" y="40" width="120" height="60" as="geometry" />
        </mxCell>
        <mxCell id="Br_0iNkM0B_P52d63Boj-57" value="用户" style="text;html=1;align=center;verticalAlign=middle;resizable=0;points=[];autosize=1;strokeColor=none;fillColor=none;fontSize=11;fontFamily=Helvetica;fontColor=default;" vertex="1" parent="1">
          <mxGeometry x="513" y="20" width="40" height="20" as="geometry" />
        </mxCell>
        <mxCell id="Br_0iNkM0B_P52d63Boj-58" value="天猫、淘宝服务器" style="sketch=0;aspect=fixed;pointerEvents=1;shadow=0;dashed=0;html=1;strokeColor=none;labelPosition=center;verticalLabelPosition=bottom;verticalAlign=top;align=center;fillColor=#00188D;shape=mxgraph.mscae.enterprise.internet_hollow;fontFamily=Helvetica;fontSize=11;fontColor=default;" vertex="1" parent="1">
          <mxGeometry x="676" y="254.97999999999996" width="103.26" height="64.02" as="geometry" />
        </mxCell>
        <mxCell id="Br_0iNkM0B_P52d63Boj-61" value="redis" style="rounded=0;whiteSpace=wrap;html=1;dashed=1;fontFamily=Helvetica;fontSize=11;fontColor=#000000;fillColor=#e3c800;strokeColor=#B09500;" vertex="1" parent="1">
          <mxGeometry x="448" y="410" width="87" height="57" as="geometry" />
        </mxCell>
        <mxCell id="Br_0iNkM0B_P52d63Boj-62" value="mysql" style="rounded=0;whiteSpace=wrap;html=1;dashed=1;fontFamily=Helvetica;fontSize=11;fontColor=#000000;fillColor=#e3c800;strokeColor=#B09500;" vertex="1" parent="1">
          <mxGeometry x="540" y="410" width="93.5" height="60" as="geometry" />
        </mxCell>
        <mxCell id="Br_0iNkM0B_P52d63Boj-63" value="" style="shape=flexArrow;endArrow=classic;startArrow=classic;html=1;rounded=0;labelBackgroundColor=default;fontFamily=Helvetica;fontSize=11;fontColor=default;strokeColor=default;width=8.965517241379311;endSize=5.86896551724138;exitX=0.398;exitY=0.001;exitDx=0;exitDy=0;exitPerimeter=0;entryX=0.844;entryY=1.021;entryDx=0;entryDy=0;entryPerimeter=0;" edge="1" parent="1">
          <mxGeometry width="100" height="100" relative="1" as="geometry">
            <mxPoint x="574.2129999999997" y="410.05999999999995" as="sourcePoint" />
            <mxPoint x="575.8400000000001" y="330.63" as="targetPoint" />
            <Array as="points">
              <mxPoint x="574" y="370" />
            </Array>
          </mxGeometry>
        </mxCell>
        <mxCell id="Br_0iNkM0B_P52d63Boj-64" value="" style="shape=flexArrow;endArrow=classic;startArrow=classic;html=1;rounded=0;labelBackgroundColor=default;fontFamily=Helvetica;fontSize=11;fontColor=default;strokeColor=default;exitX=0.75;exitY=0;exitDx=0;exitDy=0;" edge="1" parent="1">
          <mxGeometry width="100" height="100" relative="1" as="geometry">
            <mxPoint x="498.25" y="409.9999999999999" as="sourcePoint" />
            <mxPoint x="500" y="330" as="targetPoint" />
          </mxGeometry>
        </mxCell>
        <mxCell id="Br_0iNkM0B_P52d63Boj-65" value="" style="sketch=0;aspect=fixed;html=1;points=[];align=center;image;fontSize=12;image=img/lib/mscae/Cache_Redis_Product.svg;dashed=1;fontFamily=Helvetica;fontColor=default;" vertex="1" parent="1">
          <mxGeometry x="481.5" y="410" width="30" height="25.2" as="geometry" />
        </mxCell>
        <mxCell id="Br_0iNkM0B_P52d63Boj-66" value="" style="sketch=0;aspect=fixed;html=1;points=[];align=center;image;fontSize=12;image=img/lib/mscae/VM_Linux.svg;dashed=1;fontFamily=Helvetica;fontColor=default;" vertex="1" parent="1">
          <mxGeometry x="478" y="60.8" width="31.74" height="29.2" as="geometry" />
        </mxCell>
        <mxCell id="Br_0iNkM0B_P52d63Boj-67" value="" style="sketch=0;aspect=fixed;html=1;points=[];align=center;image;fontSize=12;image=img/lib/mscae/VirtualMachineWindows.svg;dashed=1;fontFamily=Helvetica;fontColor=default;" vertex="1" parent="1">
          <mxGeometry x="518" y="61" width="31.52" height="29" as="geometry" />
        </mxCell>
        <mxCell id="Br_0iNkM0B_P52d63Boj-68" value="" style="sketch=0;aspect=fixed;html=1;points=[];align=center;image;fontSize=12;image=img/lib/mscae/VirtualMachineWindows.svg;dashed=1;fontFamily=Helvetica;fontColor=default;" vertex="1" parent="1">
          <mxGeometry x="558" y="61" width="35" height="32.2" as="geometry" />
        </mxCell>
        <mxCell id="Br_0iNkM0B_P52d63Boj-69" value="" style="sketch=0;aspect=fixed;html=1;points=[];align=center;image;fontSize=12;image=img/lib/mscae/Azure_Database_for_MySQL_servers.svg;dashed=1;fontFamily=Helvetica;fontColor=default;" vertex="1" parent="1">
          <mxGeometry x="578" y="410" width="18" height="23.68" as="geometry" />
        </mxCell>
        <mxCell id="Br_0iNkM0B_P52d63Boj-70" value="read/write" style="text;html=1;align=center;verticalAlign=middle;resizable=0;points=[];autosize=1;strokeColor=none;fillColor=none;fontSize=11;fontFamily=Helvetica;fontColor=default;fontStyle=1" vertex="1" parent="1">
          <mxGeometry x="502" y="360" width="70" height="20" as="geometry" />
        </mxCell>
        <mxCell id="Br_0iNkM0B_P52d63Boj-71" value="&lt;font color=&quot;#000000&quot;&gt;前端资源(管理员)&lt;/font&gt;" style="rounded=0;whiteSpace=wrap;html=1;dashed=1;fontFamily=Helvetica;fontSize=11;fontColor=#ffffff;fillColor=#60a917;strokeColor=#2D7600;" vertex="1" parent="1">
          <mxGeometry x="683" y="205" width="110" height="30" as="geometry" />
        </mxCell>
        <mxCell id="Br_0iNkM0B_P52d63Boj-73" value="请求/响应" style="text;html=1;align=center;verticalAlign=middle;resizable=0;points=[];autosize=1;strokeColor=none;fillColor=none;" vertex="1" parent="1">
          <mxGeometry x="610.5" y="195" width="61" height="18" as="geometry" />
        </mxCell>
        <mxCell id="Br_0iNkM0B_P52d63Boj-74" value="&lt;h1 style=&quot;outline: none; margin: 0px; padding: 0px; font-size: 40px; box-sizing: border-box; -webkit-tap-highlight-color: transparent; line-height: 52px; font-weight: 500; overflow: hidden; text-overflow: ellipsis; font-family: &amp;quot;pingfang SC&amp;quot;, &amp;quot;helvetica neue&amp;quot;, arial, &amp;quot;hiragino sans gb&amp;quot;, &amp;quot;microsoft yahei ui&amp;quot;, &amp;quot;microsoft yahei&amp;quot;, simsun, sans-serif; text-align: start; background-color: rgb(241, 243, 244);&quot; id=&quot;hero_tit&quot; class=&quot;tpm-prod-hero__tit&quot;&gt;&lt;br&gt;&lt;/h1&gt;" style="sketch=0;aspect=fixed;pointerEvents=1;shadow=0;dashed=0;html=1;strokeColor=none;labelPosition=center;verticalLabelPosition=bottom;verticalAlign=top;align=center;fillColor=#00188D;shape=mxgraph.mscae.enterprise.internet_hollow;fontFamily=Helvetica;fontSize=11;fontColor=default;" vertex="1" parent="1">
          <mxGeometry x="688.13" y="365" width="92.26" height="57.2" as="geometry" />
        </mxCell>
        <mxCell id="Br_0iNkM0B_P52d63Boj-75" value="对象存储 COS" style="text;html=1;align=center;verticalAlign=middle;resizable=0;points=[];autosize=1;strokeColor=none;fillColor=none;" vertex="1" parent="1">
          <mxGeometry x="689.26" y="428.5" width="90" height="20" as="geometry" />
        </mxCell>
        <mxCell id="Br_0iNkM0B_P52d63Boj-77" value="" style="shape=flexArrow;endArrow=classic;startArrow=classic;html=1;rounded=0;exitX=0.445;exitY=0.03;exitDx=0;exitDy=0;exitPerimeter=0;" edge="1" parent="1" source="Br_0iNkM0B_P52d63Boj-52">
          <mxGeometry width="100" height="100" relative="1" as="geometry">
            <mxPoint x="431.5" y="200" as="sourcePoint" />
            <mxPoint x="531.5" y="100" as="targetPoint" />
          </mxGeometry>
        </mxCell>
        <mxCell id="Br_0iNkM0B_P52d63Boj-78" value="请求/响应" style="text;html=1;align=center;verticalAlign=middle;resizable=0;points=[];autosize=1;strokeColor=none;fillColor=none;" vertex="1" parent="1">
          <mxGeometry x="540.5" y="120" width="70" height="20" as="geometry" />
        </mxCell>
        <mxCell id="Br_0iNkM0B_P52d63Boj-80" value="" style="shape=flexArrow;endArrow=classic;startArrow=classic;html=1;rounded=0;startSize=3;endSize=3;entryX=0;entryY=0.75;entryDx=0;entryDy=0;width=5;" edge="1" parent="1" target="Br_0iNkM0B_P52d63Boj-53">
          <mxGeometry width="100" height="100" relative="1" as="geometry">
            <mxPoint x="598" y="185" as="sourcePoint" />
            <mxPoint x="698" y="85" as="targetPoint" />
          </mxGeometry>
        </mxCell>
        <mxCell id="Br_0iNkM0B_P52d63Boj-81" value="" style="shape=flexArrow;endArrow=classic;startArrow=classic;html=1;rounded=0;startSize=3;endSize=3;entryX=0;entryY=0.75;entryDx=0;entryDy=0;width=5;" edge="1" parent="1">
          <mxGeometry width="100" height="100" relative="1" as="geometry">
            <mxPoint x="599" y="219" as="sourcePoint" />
            <mxPoint x="684" y="221.5" as="targetPoint" />
          </mxGeometry>
        </mxCell>
        <mxCell id="Br_0iNkM0B_P52d63Boj-82" value="请求/响应" style="text;html=1;align=center;verticalAlign=middle;resizable=0;points=[];autosize=1;strokeColor=none;fillColor=none;" vertex="1" parent="1">
          <mxGeometry x="130" y="117" width="61" height="18" as="geometry" />
        </mxCell>
        <mxCell id="Br_0iNkM0B_P52d63Boj-83" value="短链子系统" style="text;html=1;align=center;verticalAlign=middle;resizable=0;points=[];autosize=1;strokeColor=none;fillColor=none;fontStyle=1;fontSize=24;" vertex="1" parent="1">
          <mxGeometry x="11" y="48" width="130" height="33" as="geometry" />
        </mxCell>
        <mxCell id="Br_0iNkM0B_P52d63Boj-84" value="&lt;b&gt;推广子系统&lt;/b&gt;" style="text;html=1;align=center;verticalAlign=middle;resizable=0;points=[];autosize=1;strokeColor=none;fillColor=none;fontSize=24;" vertex="1" parent="1">
          <mxGeometry x="652" y="48" width="130" height="33" as="geometry" />
        </mxCell>
        <mxCell id="Br_0iNkM0B_P52d63Boj-85" value="" style="rounded=1;whiteSpace=wrap;html=1;dashed=1;fontSize=24;fillColor=#ffe6cc;strokeColor=#d79b00;" vertex="1" parent="1">
          <mxGeometry x="113" y="494" width="597" height="348" as="geometry" />
        </mxCell>
        <mxCell id="Br_0iNkM0B_P52d63Boj-87" value="" style="shape=flexArrow;endArrow=classic;startArrow=classic;html=1;rounded=0;fontSize=24;startSize=3;endSize=3;width=5;" edge="1" parent="1" target="Br_0iNkM0B_P52d63Boj-58">
          <mxGeometry width="100" height="100" relative="1" as="geometry">
            <mxPoint x="587" y="313" as="sourcePoint" />
            <mxPoint x="687" y="213" as="targetPoint" />
          </mxGeometry>
        </mxCell>
        <mxCell id="Br_0iNkM0B_P52d63Boj-89" value="" style="shape=flexArrow;endArrow=classic;startArrow=classic;html=1;rounded=0;fontSize=24;startSize=3;endSize=3;entryX=-0.028;entryY=0.374;entryDx=0;entryDy=0;entryPerimeter=0;width=5;" edge="1" parent="1" target="Br_0iNkM0B_P52d63Boj-74">
          <mxGeometry width="100" height="100" relative="1" as="geometry">
            <mxPoint x="588" y="335" as="sourcePoint" />
            <mxPoint x="688" y="235" as="targetPoint" />
          </mxGeometry>
        </mxCell>
        <mxCell id="Br_0iNkM0B_P52d63Boj-91" value="" style="shape=flexArrow;endArrow=classic;startArrow=classic;html=1;rounded=0;fontSize=24;startSize=3;endSize=3;" edge="1" parent="1">
          <mxGeometry width="100" height="100" relative="1" as="geometry">
            <mxPoint x="294" y="299" as="sourcePoint" />
            <mxPoint x="478" y="302.8493723849373" as="targetPoint" />
          </mxGeometry>
        </mxCell>
        <mxCell id="Br_0iNkM0B_P52d63Boj-94" value="rabbitmq" style="rounded=0;whiteSpace=wrap;html=1;fillColor=#f8cecc;strokeColor=#b85450;" vertex="1" parent="1">
          <mxGeometry x="346.5" y="506" width="120" height="60" as="geometry" />
        </mxCell>
        <mxCell id="Br_0iNkM0B_P52d63Boj-95" value="" style="shape=flexArrow;endArrow=classic;startArrow=classic;html=1;rounded=0;fontSize=24;startSize=3;endSize=3;entryX=0.143;entryY=0.017;entryDx=0;entryDy=0;entryPerimeter=0;" edge="1" parent="1">
          <mxGeometry width="100" height="100" relative="1" as="geometry">
            <mxPoint x="300" y="319.8" as="sourcePoint" />
            <mxPoint x="363.6600000000001" y="501.02" as="targetPoint" />
          </mxGeometry>
        </mxCell>
        <mxCell id="Br_0iNkM0B_P52d63Boj-96" value="" style="shape=flexArrow;endArrow=classic;startArrow=classic;html=1;rounded=0;fontSize=24;startSize=3;endSize=3;exitX=0.481;exitY=0.032;exitDx=0;exitDy=0;exitPerimeter=0;" edge="1" parent="1" source="Br_0iNkM0B_P52d63Boj-85">
          <mxGeometry width="100" height="100" relative="1" as="geometry">
            <mxPoint x="376" y="420" as="sourcePoint" />
            <mxPoint x="476" y="320" as="targetPoint" />
          </mxGeometry>
        </mxCell>
      </root>
    </mxGraphModel>
  </diagram>
</mxfile>
